<?xml version="1.0" encoding="UTF-8"?>
<svg version="1.1" xmlns="http://www.w3.org/2000/svg" width="256" height="256">
<path d="M0 0 C1.37953235 -0.0057164 2.75905998 -0.01268553 4.13858032 -0.02079773 C7.8536287 -0.03860535 11.56843928 -0.03758426 15.28351736 -0.03185534 C18.39946252 -0.02874505 21.51536321 -0.03487633 24.631302 -0.04089409 C31.98991673 -0.05489735 39.34841526 -0.05341351 46.70703125 -0.04199219 C54.26600751 -0.03051821 61.82462866 -0.04458397 69.38355815 -0.07138866 C75.90369959 -0.09363303 82.42373027 -0.10016339 88.9439069 -0.09431225 C92.824781 -0.09096188 96.70542766 -0.09322831 100.58626938 -0.11056328 C104.23908829 -0.12617044 107.89138628 -0.12192695 111.54418564 -0.10325813 C113.50132846 -0.09788839 115.45849546 -0.11198134 117.41558838 -0.12695312 C132.87297402 0.00006234 145.37051908 5.05334666 156.67236328 15.59155273 C169.76568849 29.38882015 171.38296912 43.5006319 171.10986328 61.52905273 C171.09478881 63.26602029 171.0811053 65.00300051 171.06884766 66.73999023 C171.03606152 70.96166125 170.98443242 75.18271486 170.92236328 79.40405273 C171.536521 79.18966553 172.15067871 78.97527832 172.78344727 78.75439453 C173.9949646 78.33927612 173.9949646 78.33927612 175.23095703 77.91577148 C176.03073975 77.63950928 176.83052246 77.36324707 177.65454102 77.07861328 C180.1609297 76.33309149 182.31922169 76.15213581 184.92236328 76.40405273 C187.63862139 81.83656896 186.06824338 88.78036314 184.42236328 94.34155273 C181.80240767 101.62653721 177.38748108 107.93893494 171.92236328 113.40405273 C171.61704792 116.47698053 171.61704792 116.47698053 171.66699219 120.1418457 C171.66337173 120.83487289 171.65975128 121.52790009 171.65602112 122.2419281 C171.64911777 123.75061602 171.64662344 125.25932896 171.64796829 126.76803207 C171.64893374 129.16601089 171.63598447 131.56354155 171.61898804 133.9614563 C171.57275571 140.78082672 171.54816217 147.6001561 171.54150391 154.41967773 C171.53644885 158.59136242 171.5119862 162.76258799 171.47617722 166.93411636 C171.46645835 168.51508941 171.46400346 170.09612633 171.46934891 171.67712021 C171.52341562 188.47562714 167.40083189 201.66385808 155.73486328 214.15405273 C143.51795929 225.72796178 130.22265282 228.86625796 113.84472656 228.80810547 C112.46519421 228.81382187 111.08566658 228.820791 109.70614624 228.8289032 C105.99109787 228.84671082 102.27628728 228.84568972 98.5612092 228.83996081 C95.44526404 228.83685052 92.32936336 228.8429818 89.21342456 228.84899956 C81.85480983 228.86300282 74.4963113 228.86151898 67.13769531 228.85009766 C59.57871905 228.83862368 52.0200979 228.85268944 44.46116841 228.87949413 C37.94102697 228.90173849 31.4209963 228.90826886 24.90081966 228.90241772 C21.01994556 228.89906735 17.1392989 228.90133378 13.25845718 228.91866875 C9.60563827 228.93427591 5.95334028 228.93003241 2.30054092 228.9113636 C0.34339811 228.90599386 -1.6137689 228.92008681 -3.57086182 228.93505859 C-19.02824746 228.80804313 -31.52579252 223.75475881 -42.82763672 213.21655273 C-54.23446983 201.19644903 -57.53788362 188.36481043 -57.48168945 172.24047852 C-57.48740374 170.83976704 -57.49437206 169.43906022 -57.50248718 168.0383606 C-57.52031823 164.26133992 -57.5192692 160.48455284 -57.5135448 156.70750284 C-57.51043791 153.54180726 -57.51656206 150.37615557 -57.52258354 147.21046627 C-57.53659452 139.7354066 -57.5350965 132.26046131 -57.52368164 124.78540039 C-57.51220714 117.10202712 -57.52627253 109.41900318 -57.55307811 101.73567593 C-57.57530945 95.11281143 -57.58185573 88.49005599 -57.5760017 81.86715686 C-57.57264822 77.92314396 -57.57493894 73.97935482 -57.59225273 70.03537369 C-57.60783881 66.32347792 -57.60363907 62.61209532 -57.58494759 58.90021896 C-57.57956685 56.90828374 -57.59368707 54.91632482 -57.60864258 52.92443848 C-57.4861234 37.80370262 -52.18866267 25.68019193 -41.89013672 14.65405273 C-29.67323273 3.08014369 -16.37792626 -0.05815249 0 0 Z " fill="#1D1D1D" transform="translate(65.07763671875,14.595947265625)"/>
<path d="M0 0 C19.21825857 15.1847969 19.21825857 15.1847969 21.84765625 27.25 C23.10884479 42.70355071 20.18412084 56.74113214 16.66455078 71.73242188 C12.84754247 88.16860112 10.03385959 104.41299445 8.84765625 121.25 C2.5583176 123.37837179 -3.75893689 125.33886758 -10.13671875 127.1875 C-13.15944056 128.25250043 -15.56712548 129.35601656 -18.15234375 131.25 C-19.52134729 134.82996259 -19.52134729 134.82996259 -20.15234375 138.25 C-19.65347656 138.54390625 -19.15460938 138.8378125 -18.640625 139.140625 C-10.96780601 143.93441496 -4.64306967 150.00843822 1.84765625 156.25 C3.12769531 157.46816406 3.12769531 157.46816406 4.43359375 158.7109375 C9.38008488 163.52237085 13.90598818 168.57197011 17.84765625 174.25 C17.84765625 174.58 17.84765625 174.91 17.84765625 175.25 C-16.80234375 175.25 -51.45234375 175.25 -87.15234375 175.25 C-84.89685685 168.48353931 -84.89685685 168.48353931 -83.26953125 165.55078125 C-82.91076904 164.90367187 -82.55200684 164.2565625 -82.18237305 163.58984375 C-81.80121338 162.92082031 -81.42005371 162.25179687 -81.02734375 161.5625 C-80.63135986 160.86640625 -80.23537598 160.1703125 -79.82739258 159.453125 C-72.3192204 146.46148989 -72.3192204 146.46148989 -68.15234375 142.25 C-64.15234375 142.25 -64.15234375 142.25 -61.27734375 143.75 C-57.63511064 145.49827189 -56.13731858 145.93970718 -52.15234375 145.25 C-48.65752052 143.48684594 -45.33979274 141.52404958 -42.15234375 139.25 C-42.15234375 138.92 -42.15234375 138.59 -42.15234375 138.25 C-42.70921875 138.683125 -43.26609375 139.11625 -43.83984375 139.5625 C-51.71047909 145.3059366 -51.71047909 145.3059366 -57.18359375 144.828125 C-64.16664223 142.77754727 -70.10263583 136.0487122 -74.15234375 130.25 C-75.63642908 126.40181896 -74.46656266 124.29297271 -72.921875 120.5546875 C-71.58771776 116.55898814 -71.40096102 112.43362859 -71.15234375 108.25 C-70.47171875 108.53875 -69.79109375 108.8275 -69.08984375 109.125 C-63.26491574 111.35582349 -57.20052641 112.76448145 -51.15234375 114.25 C-51.15234375 114.91 -51.15234375 115.57 -51.15234375 116.25 C-50.57742187 116.53101563 -50.0025 116.81203125 -49.41015625 117.1015625 C-47.2326462 118.20915412 -45.12486087 119.37287001 -43.02734375 120.625 C-42.34414062 121.02460938 -41.6609375 121.42421875 -40.95703125 121.8359375 C-38.90557785 123.44335337 -38.13730992 124.86374175 -37.15234375 127.25 C-37.24773437 126.64671875 -37.343125 126.0434375 -37.44140625 125.421875 C-37.55226563 124.62265625 -37.663125 123.8234375 -37.77734375 123 C-37.89335938 122.21109375 -38.009375 121.4221875 -38.12890625 120.609375 C-38.1555377 117.92847541 -37.51826459 116.52305911 -36.15234375 114.25 C-37.22871094 114.22421875 -38.30507812 114.1984375 -39.4140625 114.171875 C-58.12499388 113.53268169 -70.84435526 108.30538471 -84.03125 94.671875 C-87.02071562 91.25848884 -89.62225866 87.619031 -92.23046875 83.91015625 C-96.86165939 77.17996751 -96.86165939 77.17996751 -103.15234375 72.25 C-101.75989736 75.03489278 -99.59242387 76.37301529 -97.15234375 78.25 C-97.64734375 79.24 -97.64734375 79.24 -98.15234375 80.25 C-110.53136584 71.58775625 -110.53136584 71.58775625 -111.65234375 65.5625 C-111.15234375 63.25 -111.15234375 63.25 -110.02734375 61.4375 C-107.27506714 59.69439148 -105.36117427 59.92530575 -102.15234375 60.25 C-99.81884766 61.90234375 -99.81884766 61.90234375 -97.62890625 64.1875 C-96.83613281 64.99960938 -96.04335937 65.81171875 -95.2265625 66.6484375 C-94.41832031 67.50695312 -93.61007813 68.36546875 -92.77734375 69.25 C-91.94589844 70.10851562 -91.11445312 70.96703125 -90.2578125 71.8515625 C-88.20851537 73.97152505 -86.1745035 76.10418984 -84.15234375 78.25 C-85.80234375 75.94 -87.45234375 73.63 -89.15234375 71.25 C-88.25926514 71.07609741 -88.25926514 71.07609741 -87.34814453 70.89868164 C-84.65727979 70.37296202 -81.96731195 69.84278705 -79.27734375 69.3125 C-77.87162109 69.03889648 -77.87162109 69.03889648 -76.4375 68.75976562 C-75.09365234 68.49389648 -75.09365234 68.49389648 -73.72265625 68.22265625 C-72.89523926 68.06031494 -72.06782227 67.89797363 -71.21533203 67.73071289 C-69.10516009 67.32331058 -69.10516009 67.32331058 -67.15234375 66.25 C-65.29940103 66.17949229 -63.44399981 66.16574328 -61.58984375 66.1875 C-60.10291016 66.20103516 -60.10291016 66.20103516 -58.5859375 66.21484375 C-57.78285156 66.22644531 -56.97976562 66.23804688 -56.15234375 66.25 C-55.82234375 66.25 -55.49234375 66.25 -55.15234375 66.25 C-64.29353754 65.82579493 -64.29353754 65.82579493 -73.15234375 67.75 C-79.05209184 69.80714901 -84.96684886 69.71750833 -91.15234375 69.25 C-91.81234375 68.92 -92.47234375 68.59 -93.15234375 68.25 C-92.77492142 62.08543524 -90.99364067 59.07624485 -87.15234375 54.25 C-89.79234375 54.91 -92.43234375 55.57 -95.15234375 56.25 C-94.58984375 54.4375 -94.58984375 54.4375 -93.15234375 52.25 C-87.83463667 49.59114646 -82.51409809 48.2634737 -76.71484375 47.0625 C-75.88791016 46.88525391 -75.06097656 46.70800781 -74.20898438 46.52539062 C-72.19145488 46.09389588 -70.17207979 45.6710455 -68.15234375 45.25 C-68.19101563 46.34957031 -68.2296875 47.44914062 -68.26953125 48.58203125 C-68.12926219 52.97245279 -67.05660921 54.08947582 -64.15234375 57.25 C-63.45607166 58.56811509 -62.78352231 59.89950533 -62.15234375 61.25 C-57.81562283 55.2677249 -55.77522311 49.42761278 -54.15234375 42.25 C-54.64734375 43.24 -54.64734375 43.24 -55.15234375 44.25 C-56.47234375 44.25 -57.79234375 44.25 -59.15234375 44.25 C-58.88421875 44.806875 -58.61609375 45.36375 -58.33984375 45.9375 C-58.24703125 47.0821875 -58.24703125 47.0821875 -58.15234375 48.25 C-60.58984375 51 -60.58984375 51 -63.15234375 53.25 C-62.82234375 50.94 -62.49234375 48.63 -62.15234375 46.25 C-62.81234375 48.89 -63.47234375 51.53 -64.15234375 54.25 C-64.81234375 54.25 -65.47234375 54.25 -66.15234375 54.25 C-69.23137128 45.01291742 -66.25596633 34.20977579 -62.15234375 25.75 C-59.09678819 20.19444444 -59.09678819 20.19444444 -57.15234375 18.25 C-55.83234375 18.25 -54.51234375 18.25 -53.15234375 18.25 C-51.61967793 21.31533164 -52.04957904 24.51754272 -52.08984375 27.875 C-52.09435547 28.58140625 -52.09886719 29.2878125 -52.10351562 30.015625 C-52.115305 31.76045275 -52.13324051 33.505237 -52.15234375 35.25 C-51.92836642 33.20999027 -51.72385838 31.16783811 -51.52734375 29.125 C-51.41132812 27.98804688 -51.2953125 26.85109375 -51.17578125 25.6796875 C-51.15121538 22.08488201 -51.83066564 19.569329 -53.15234375 16.25 C-55.49382606 16.12786106 -55.49382606 16.12786106 -58.15234375 17.25 C-60.11422909 19.75803179 -61.65156118 22.44641043 -63.15234375 25.25 C-64.15234375 23.25 -64.15234375 23.25 -63.1484375 20.203125 C-57.84273507 7.19843479 -57.84273507 7.19843479 -52.15234375 3.25 C-48.33984375 2.875 -48.33984375 2.875 -45.15234375 3.25 C-44.82234375 3.25 -44.49234375 3.25 -44.15234375 3.25 C-44.15234375 2.59 -44.15234375 1.93 -44.15234375 1.25 C-42.0918452 0.43243762 -40.02885522 -0.37884734 -37.96484375 -1.1875 C-36.81628906 -1.63996094 -35.66773437 -2.09242187 -34.484375 -2.55859375 C-23.10477703 -6.62750041 -10.15580968 -6.92886053 0 0 Z " fill="#A06849" transform="translate(141.15234375,67.75)"/>
<path d="M0 0 C3.08485917 1.07970071 3.86769002 2.07675431 5.5 4.875 C6.17109561 6.53988826 6.83704877 8.20685196 7.5 9.875 C8.36487623 11.81704026 9.24002785 13.75453452 10.125 15.6875 C10.79402344 17.15123047 10.79402344 17.15123047 11.4765625 18.64453125 C11.81429687 19.38058594 12.15203125 20.11664063 12.5 20.875 C13.43158936 20.8843457 14.36317871 20.89369141 15.32299805 20.90332031 C18.84421442 20.9478457 22.36430692 21.00967999 25.88500977 21.08251953 C27.39661933 21.11040842 28.90836604 21.13177906 30.42016602 21.14599609 C51.68844033 21.35776119 67.41279516 28.99487444 82.5 43.875 C90.75558348 53.10624334 96.80573757 64.0604989 100.5 75.875 C106.50645181 76.16102151 110.86107372 75.6391704 116.48046875 73.54296875 C118.88671815 72.74709129 120.9827374 72.63139394 123.5 72.875 C126.21625811 78.30751623 124.6458801 85.2513104 123 90.8125 C119.5055468 100.35174417 113.73740234 107.5918833 105.48046875 113.4375 C101.22899535 116.52338207 100.07395102 118.66033212 98.75 123.8125 C95.06872317 136.19372319 89.67190605 144.32143594 78.5 150.875 C77.7383252 151.32294922 76.97665039 151.77089844 76.19189453 152.23242188 C73.59799297 153.73923605 70.99116009 155.21968661 68.375 156.6875 C67.54009033 157.15615479 66.70518066 157.62480957 65.8449707 158.10766602 C60.54222091 160.99546759 55.29635013 163.18112532 49.5 164.875 C49.7165625 166.50308594 49.7165625 166.50308594 49.9375 168.1640625 C50.12519956 169.6093491 50.31268838 171.05466307 50.5 172.5 C50.59539062 173.21285156 50.69078125 173.92570313 50.7890625 174.66015625 C51.19423474 177.81471155 51.51295557 180.67299882 51.30859375 183.859375 C51.58920209 188.28038795 53.54127912 191.6127772 55.5625 195.5 C56.33515151 196.98655596 57.09734924 198.47860443 57.84765625 199.9765625 C58.18804932 200.62963379 58.52844238 201.28270508 58.87915039 201.95556641 C59.64914462 204.33609911 59.38959351 205.56077204 58.5 207.875 C56.79296875 209.32421875 56.79296875 209.32421875 54.6875 210.5625 C54.00042969 210.97886719 53.31335938 211.39523438 52.60546875 211.82421875 C47.20736396 214.51826363 41.0247314 214.74567471 35.20703125 213.30859375 C31.46967972 212.00834941 29.73352999 211.22529498 27.5 207.875 C25.1187537 198.83632568 25.17378279 189.52954706 25.25 180.25 C25.25614822 179.18454453 25.25614822 179.18454453 25.26242065 178.0975647 C25.39856988 157.92908133 28.68210121 139.06026384 32.74609375 119.36328125 C32.89249802 118.6506311 33.03890228 117.93798096 33.18974304 117.20373535 C33.90392251 113.73368228 34.62945448 110.26677951 35.37792969 106.80395508 C36.86092627 99.78000011 37.98696598 93.12198382 37.875 85.9375 C37.88660156 85.16599609 37.89820313 84.39449219 37.91015625 83.59960938 C37.85426897 72.56187249 32.74724421 65.27657492 25.2421875 57.55078125 C9.77662492 42.90573887 -11.07284586 34.49364714 -32.34375 34.57421875 C-37.4144311 35.0574396 -41.86776702 36.83244058 -46.5 38.875 C-45.96375 38.6584375 -45.4275 38.441875 -44.875 38.21875 C-31.96089458 33.63084413 -18.13640705 35.0728148 -5.5 39.875 C-5.17 40.535 -4.84 41.195 -4.5 41.875 C-5.40709717 42.07077637 -5.40709717 42.07077637 -6.33251953 42.27050781 C-9.09973499 42.87555473 -11.86220707 43.50008255 -14.625 44.125 C-15.57632813 44.32996094 -16.52765625 44.53492188 -17.5078125 44.74609375 C-23.00683406 46.00628619 -26.88501539 47.50037912 -31.5 50.875 C-33.84375 51.60546875 -33.84375 51.60546875 -36 52.0625 C-40.76668603 53.56861256 -42.70601674 55.94473161 -45.21484375 60.1796875 C-47.47362644 64.91695211 -49.05134704 69.83880059 -50.5 74.875 C-54.47468157 71.24921475 -56.80014411 67.90346806 -59.1875 63 C-59.76886719 61.82695313 -60.35023437 60.65390625 -60.94921875 59.4453125 C-64.63793793 50.95289604 -66.36811312 42.03810533 -63.625 32.98828125 C-61.05345016 27.32917978 -58.12746249 23.56595025 -52.5 20.875 C-51.28183594 20.28912109 -51.28183594 20.28912109 -50.0390625 19.69140625 C-38.72851464 15.30970608 -26.4171845 16.51281789 -14.5 16.875 C-14.11134766 15.53695312 -14.11134766 15.53695312 -13.71484375 14.171875 C-12.51605413 10.91856811 -11.21679688 8.81207998 -9.0625 6.125 C-8.46566406 5.36703125 -7.86882812 4.6090625 -7.25390625 3.828125 C-4.96726447 1.2817533 -3.52429875 -0.17621494 0 0 Z " fill="#EA5166" transform="translate(126.5,18.125)"/>
<path d="M0 0 C2.33349609 1.65234375 2.33349609 1.65234375 4.5234375 3.9375 C5.31621094 4.74960938 6.10898437 5.56171875 6.92578125 6.3984375 C7.73402344 7.25695312 8.54226562 8.11546875 9.375 9 C10.20644531 9.85851562 11.03789063 10.71703125 11.89453125 11.6015625 C13.94382838 13.72152505 15.97784025 15.85418984 18 18 C16.35 15.69 14.7 13.38 13 11 C13.59538574 10.88406494 14.19077148 10.76812988 14.80419922 10.64868164 C17.49506396 10.12296202 20.1850318 9.59278705 22.875 9.0625 C23.81214844 8.88009766 24.74929687 8.69769531 25.71484375 8.50976562 C27.05869141 8.24389648 27.05869141 8.24389648 28.4296875 7.97265625 C29.25710449 7.81031494 30.08452148 7.64797363 30.93701172 7.48071289 C33.04718366 7.07331058 33.04718366 7.07331058 35 6 C41.23722727 5.47003951 46.76289712 5.24294793 52 9 C55.16028224 11.85681143 58.23173309 14.75805186 61 18 C61 18.66 61 19.32 61 20 C61.66 20 62.32 20 63 20 C63 20.66 63 21.32 63 22 C63.66 22 64.32 22 65 22 C66.0828125 23.1446875 66.0828125 23.1446875 67.1875 24.3125 C73.6025825 30.44246772 81.92900915 31.06832247 90.34960938 32.4609375 C96.24020134 33.4942261 101.36582407 34.62074432 105.9375 38.75 C107.57402296 42.21557803 107.00697775 44.34970565 106 48 C102.6877892 52.57085091 99.30756528 55.42168095 94.375 58.1875 C93.74053955 58.55625244 93.1060791 58.92500488 92.45239258 59.30493164 C90.3080116 60.54812191 88.15436514 61.7742008 86 63 C83.4177052 64.48245628 80.8373002 65.96811706 78.25830078 67.45629883 C76.56515445 68.43182768 74.86956662 69.40313314 73.17138672 70.36987305 C72.39682129 70.81371338 71.62225586 71.25755371 70.82421875 71.71484375 C70.13416748 72.10792725 69.44411621 72.50101074 68.7331543 72.90600586 C66.84290889 74.01008163 66.84290889 74.01008163 65 76 C63.83404297 76.46019531 63.83404297 76.46019531 62.64453125 76.9296875 C59.93182487 78.0275923 58.01197605 79.36570734 55.6875 81.125 C52.05492794 83.56676201 49.38861699 84.9639864 44.96875 84.578125 C37.98570152 82.52754727 32.04970792 75.7987122 28 70 C26.51591467 66.15181896 27.68578109 64.04297271 29.23046875 60.3046875 C30.56462599 56.30898814 30.75138273 52.18362859 31 48 C32.0209375 48.433125 32.0209375 48.433125 33.0625 48.875 C38.88742801 51.10582349 44.95181734 52.51448145 51 54 C51 54.66 51 55.32 51 56 C51.57492188 56.28101563 52.14984375 56.56203125 52.7421875 56.8515625 C54.91969755 57.95915412 57.02748288 59.12287001 59.125 60.375 C59.80820313 60.77460938 60.49140625 61.17421875 61.1953125 61.5859375 C63.2467659 63.19335337 64.01503383 64.61374175 65 67 C64.90460938 66.39671875 64.80921875 65.7934375 64.7109375 65.171875 C64.60007812 64.37265625 64.48921875 63.5734375 64.375 62.75 C64.25898437 61.96109375 64.14296875 61.1721875 64.0234375 60.359375 C63.99680605 57.67847541 64.63407916 56.27305911 66 54 C64.92363281 53.97421875 63.84726563 53.9484375 62.73828125 53.921875 C44.02734987 53.28268169 31.30798849 48.05538471 18.12109375 34.421875 C15.13162813 31.00848884 12.53008509 27.369031 9.921875 23.66015625 C5.29068436 16.92996751 5.29068436 16.92996751 -1 12 C0.39244639 14.78489278 2.55991988 16.12301529 5 18 C4.67 18.66 4.34 19.32 4 20 C-8.37902209 11.33775625 -8.37902209 11.33775625 -9.5 5.3125 C-9 3 -9 3 -7.875 1.1875 C-5.12272339 -0.55560852 -3.20883052 -0.32469425 0 0 Z " fill="#65596D" transform="translate(39,128)"/>
<path d="M0 0 C3.08485917 1.07970071 3.86769002 2.07675431 5.5 4.875 C6.17109561 6.53988826 6.83704877 8.20685196 7.5 9.875 C8.36487623 11.81704026 9.24002785 13.75453452 10.125 15.6875 C10.79402344 17.15123047 10.79402344 17.15123047 11.4765625 18.64453125 C11.81429687 19.38058594 12.15203125 20.11664063 12.5 20.875 C13.43158936 20.8843457 14.36317871 20.89369141 15.32299805 20.90332031 C18.84421442 20.9478457 22.36430692 21.00967999 25.88500977 21.08251953 C27.39661933 21.11040842 28.90836604 21.13177906 30.42016602 21.14599609 C51.68844033 21.35776119 67.41279516 28.99487444 82.5 43.875 C90.75558348 53.10624334 96.80573757 64.0604989 100.5 75.875 C106.50645181 76.16102151 110.86107372 75.6391704 116.48046875 73.54296875 C118.88671815 72.74709129 120.9827374 72.63139394 123.5 72.875 C126.21625811 78.30751623 124.6458801 85.2513104 123 90.8125 C119.5055468 100.35174417 113.73740234 107.5918833 105.48046875 113.4375 C101.22899535 116.52338207 100.07395102 118.66033212 98.75 123.8125 C95.06872317 136.19372319 89.67190605 144.32143594 78.5 150.875 C77.7383252 151.32294922 76.97665039 151.77089844 76.19189453 152.23242188 C73.59799297 153.73923605 70.99116009 155.21968661 68.375 156.6875 C67.54009033 157.15615479 66.70518066 157.62480957 65.8449707 158.10766602 C60.54222091 160.99546759 55.29635013 163.18112532 49.5 164.875 C49.66757813 166.00679687 49.83515625 167.13859375 50.0078125 168.3046875 C50.21412375 169.7863774 50.41982117 171.26815286 50.625 172.75 C50.79322266 173.86955078 50.79322266 173.86955078 50.96484375 175.01171875 C51.22766446 176.95659197 51.3716515 178.91665038 51.5 180.875 C50.84 181.535 50.18 182.195 49.5 182.875 C47.20260929 172.63930387 45.76425276 161.91482071 49.5 151.875 C49.83 151.875 50.16 151.875 50.5 151.875 C50.17 154.845 49.84 157.815 49.5 160.875 C53.46465071 158.86639467 57.42043514 156.84088074 61.375 154.8125 C62.48359375 154.25111328 63.5921875 153.68972656 64.734375 153.11132812 C83.03001597 143.6944541 89.91326085 134.9111433 96.5 115.875 C95.89414063 115.93300781 95.28828125 115.99101562 94.6640625 116.05078125 C86.72460966 116.47829025 80.96412203 114.4663611 74.76171875 109.4765625 C70.57683482 104.83193076 70.78685833 99.24387375 71.015625 93.2578125 C71.91191863 86.99821347 74.87161012 83.18037939 79.4375 79 C82.44566989 76.91269844 84.9749423 75.7982294 88.5 74.875 C85.53 73.885 85.53 73.885 82.5 72.875 C82.5 72.545 82.5 72.215 82.5 71.875 C87.83038149 72.32672724 90.94938295 72.90235524 95.5 75.875 C88.2928755 55.52922376 76.47993385 40.48759093 57.78515625 29.41796875 C47.00497999 24.35474685 37.06447273 24.51042053 25.375 24.6875 C23.63803244 24.70257447 21.90105222 24.71625798 20.1640625 24.72851562 C15.94239148 24.76130176 11.72133787 24.81293086 7.5 24.875 C7.5 25.535 7.5 26.195 7.5 26.875 C8.23863281 27.14183594 8.97726563 27.40867187 9.73828125 27.68359375 C14.2557109 29.63241418 17.73487254 32.75240625 21.5 35.875 C22.29792969 36.5246875 23.09585938 37.174375 23.91796875 37.84375 C36.37989363 48.46313273 48.57487949 64.04226796 53.5 79.875 C53.005 81.36 53.005 81.36 52.5 82.875 C52.02691406 81.87082031 51.55382812 80.86664063 51.06640625 79.83203125 C39.10982821 54.90742406 21.75268122 34.00103418 -4.5 23.875 C-5.42554688 23.51535156 -6.35109375 23.15570313 -7.3046875 22.78515625 C-19.79805535 18.85608259 -37.04391466 18.61948136 -49.25 23.67578125 C-54.70876143 26.58522527 -58.54860732 29.80400056 -60.5 35.875 C-61.49529119 47.97647706 -59.34014885 59.2511414 -52.1875 69.25 C-51.630625 70.11625 -51.07375 70.9825 -50.5 71.875 C-50.83 72.865 -51.16 73.855 -51.5 74.875 C-60.14188543 64.51067693 -65.12514159 52.75378381 -64.875 39.16796875 C-64.14549739 32.76202397 -61.53620183 27.14450525 -56.5 23 C-54.6484375 21.90234375 -54.6484375 21.90234375 -52.5 20.875 C-51.28183594 20.28912109 -51.28183594 20.28912109 -50.0390625 19.69140625 C-38.72851464 15.30970608 -26.4171845 16.51281789 -14.5 16.875 C-14.11134766 15.53695312 -14.11134766 15.53695312 -13.71484375 14.171875 C-12.51605413 10.91856811 -11.21679688 8.81207998 -9.0625 6.125 C-8.46566406 5.36703125 -7.86882812 4.6090625 -7.25390625 3.828125 C-4.96726447 1.2817533 -3.52429875 -0.17621494 0 0 Z " fill="#55211B" transform="translate(126.5,18.125)"/>
<path d="M0 0 C4.13582949 2.81988374 6.18164671 6.16994012 7.75 10.875 C7.87170805 13.38841281 7.93510658 15.86190901 7.9375 18.375 C7.94974609 19.05175781 7.96199219 19.72851562 7.97460938 20.42578125 C7.98559396 24.13857044 7.86344616 25.70483076 5.75 28.875 C5.09 28.545 4.43 28.215 3.75 27.875 C-2.23522802 27.19515067 -2.23522802 27.19515067 -7.1875 30.25 C-10.05757605 33.90282407 -10.57636725 36.08267145 -10.55078125 40.7734375 C-10.07762253 44.07940359 -8.23571542 46.26874851 -6.25 48.875 C-6.25 49.535 -6.25 50.195 -6.25 50.875 C-8.12256417 51.38404657 -9.99819341 51.88182455 -11.875 52.375 C-12.91914062 52.6534375 -13.96328125 52.931875 -15.0390625 53.21875 C-18.29837912 53.8848877 -20.94101211 54.24874243 -24.25 53.875 C-26.296875 52.3359375 -26.296875 52.3359375 -28 50.25 C-28.85851562 49.24066406 -28.85851562 49.24066406 -29.734375 48.2109375 C-34.50310146 40.86119929 -33.90076787 32.2690818 -33.25 23.875 C-31.27527881 14.94736829 -25.69949713 6.81456709 -18 1.875 C-12.10395795 -1.52112022 -6.42804969 -2.22509412 0 0 Z " fill="#FBFBFB" transform="translate(137.25,100.125)"/>
<path d="M0 0 C0.55469317 11.64855661 -3.17555378 21.14695401 -10.76953125 30.08203125 C-15.53009185 35.00853732 -19.52699867 38.33634319 -26.67333984 38.5690918 C-27.3586377 38.5669165 -28.04393555 38.56474121 -28.75 38.5625 C-29.45721191 38.5622583 -30.16442383 38.5620166 -30.89306641 38.56176758 C-37.13788096 38.35780561 -41.53112649 36.4797732 -46 32 C-49.51111058 26.73333413 -48.64159836 20.11786722 -48 14 C-46.22798947 9.594683 -43.02653862 6.45741194 -39 4 C-36.10253906 3.61523438 -36.10253906 3.61523438 -32.765625 3.59375 C-31.55132812 3.57183594 -30.33703125 3.54992187 -29.0859375 3.52734375 C-27.82007813 3.51832031 -26.55421875 3.50929688 -25.25 3.5 C-16.52526645 3.43703801 -8.09716241 0 0 0 Z " fill="#EA5166" transform="translate(249,93)"/>
<path d="M0 0 C5.21130865 0.40873009 8.39958746 1.081904 12 5 C13.46116716 8.86779544 13.16487794 10.56817682 11.6875 14.4375 C6.44790549 22.59861936 -4.57021604 27.16684588 -12.8125 31.6875 C-14.82137023 32.79128894 -16.82796539 33.8992307 -18.83203125 35.01171875 C-19.70577393 35.49084717 -20.5795166 35.96997559 -21.47973633 36.46362305 C-24.18073163 38.11017574 -26.53790368 40.01936085 -29 42 C-30.65810189 42.68769203 -32.32466202 43.35543435 -34 44 C-35.45911646 45.01116509 -36.89697991 46.05365572 -38.3125 47.125 C-41.94507206 49.56676201 -44.61138301 50.9639864 -49.03125 50.578125 C-56.01429848 48.52754727 -61.95029208 41.7987122 -66 36 C-67.48408533 32.15181896 -66.31421891 30.04297271 -64.76953125 26.3046875 C-63.43537401 22.30898814 -63.24861727 18.18362859 -63 14 C-61.9790625 14.433125 -61.9790625 14.433125 -60.9375 14.875 C-55.11257199 17.10582349 -49.04818266 18.51448145 -43 20 C-43 20.66 -43 21.32 -43 22 C-42.42507812 22.28230469 -41.85015625 22.56460938 -41.2578125 22.85546875 C-31.69048372 27.70534303 -31.69048372 27.70534303 -29.5 31.8125 C-29.2525 32.8953125 -29.2525 32.8953125 -29 34 C-28.401875 33.195625 -27.80375 32.39125 -27.1875 31.5625 C-22.42981098 25.81762479 -16.18117701 21.12078467 -10 17 C-10 16.01 -10 15.02 -10 14 C-8.5437455 13.32880451 -7.08492133 12.66318193 -5.625 12 C-4.81289062 11.62875 -4.00078125 11.2575 -3.1640625 10.875 C-1 10 -1 10 1 10 C0.505 8.515 0.505 8.515 0 7 C3 8 3 8 4.1875 9.75 C5.10819096 12.29960574 5.14948718 14.30923081 5 17 C7.70800597 14.96050874 7.70800597 14.96050874 10 12 C10.66132729 8.3781691 10.66132729 8.3781691 9 5 C6.15426397 3.18085659 3.2033927 2.04191156 0 1 C0 0.67 0 0.34 0 0 Z " fill="#5B5063" transform="translate(133,162)"/>
<path d="M0 0 C1.24834685 3.74504055 0.55889645 5.42873562 -0.375 9.25 C-2.63616891 20.29058176 -2.63616891 20.29058176 -3 41 C-18.84 41 -34.68 41 -51 41 C-48.7445131 34.23353931 -48.7445131 34.23353931 -47.1171875 31.30078125 C-46.75842529 30.65367187 -46.39966309 30.0065625 -46.0300293 29.33984375 C-45.64886963 28.67082031 -45.26770996 28.00179687 -44.875 27.3125 C-44.28102417 26.26835937 -44.28102417 26.26835937 -43.67504883 25.203125 C-36.16687665 12.21148989 -36.16687665 12.21148989 -32 8 C-28 8 -28 8 -25.125 9.5 C-21.48276689 11.24827189 -19.98497483 11.68970718 -16 11 C-10.08753908 8.10173484 -4.8931573 4.37808811 0 0 Z " fill="#F5E0AC" transform="translate(105,202)"/>
<path d="M0 0 C-1.47615293 4.15936842 -3.54990115 7.52547725 -6 11.1875 C-11.49029778 19.51815743 -16.2412474 28.23753697 -21 37 C-35.03319098 34.38743785 -45.90484767 28.07983334 -55 17 C-57.63012525 13.14774941 -60.12444861 9.27923638 -62 5 C-61.67 4.34 -61.34 3.68 -61 3 C-60.58226318 3.45439453 -60.16452637 3.90878906 -59.73413086 4.37695312 C-57.82070371 6.436389 -55.87990536 8.46788883 -53.9375 10.5 C-53.28072266 11.21542969 -52.62394531 11.93085938 -51.94726562 12.66796875 C-47.89515176 16.86945844 -47.89515176 16.86945844 -42.45703125 18.67578125 C-38.51578186 17.90534493 -35.25711693 16.57066931 -31.75 14.6875 C-31.07614258 14.34082275 -30.40228516 13.99414551 -29.70800781 13.63696289 C-25.69156471 11.53779093 -21.77236337 9.29641989 -17.875 6.984375 C-17.02196289 6.47946533 -16.16892578 5.97455566 -15.29003906 5.4543457 C-13.61745752 4.45552322 -11.95244072 3.44390507 -10.29589844 2.41870117 C-9.5330957 1.95955322 -8.77029297 1.50040527 -7.984375 1.02734375 C-7.31116211 0.61218506 -6.63794922 0.19702637 -5.94433594 -0.23071289 C-3.55726749 -1.17516953 -2.37664141 -0.85064675 0 0 Z " fill="#9F6749" transform="translate(73,206)"/>
<path d="M0 0 C0.029729 1.19375244 0.029729 1.19375244 0.06005859 2.41162109 C0.15613858 6.06637638 0.26547824 9.7206238 0.375 13.375 C0.4059375 14.62667969 0.436875 15.87835938 0.46875 17.16796875 C0.74272747 30.76465556 0.74272747 30.76465556 6 43 C6.66666667 44.66666667 7.33333333 46.33333333 8 48 C8.97236487 49.6829392 9.96564444 51.35443434 11 53 C7.23217259 51.49790399 5.49860348 49.38108671 3.0625 46.1875 C-6.06867596 34.76604549 -17.86168454 20.99451361 -32 16 C-31.01 15.67 -30.02 15.34 -29 15 C-29.0825 14.2575 -29.165 13.515 -29.25 12.75 C-28.91949519 9.11444706 -27.74740103 8.32972182 -25 6 C-17.20574823 2.29652012 -8.62526173 -0.14598468 0 0 Z " fill="#1D1D1D" transform="translate(150,190)"/>
<path d="M0 0 C3.14028234 1.09909882 3.9541092 1.93780749 5.5 4.875 C5.7165625 6.421875 5.7165625 6.421875 5.9375 8 C6.56310492 12.3097228 7.94865298 15.76101564 9.66015625 19.73828125 C10.5 21.875 10.5 21.875 10.5 23.875 C4.48970147 24.16120469 0.11915641 23.71891656 -5.45703125 21.43359375 C-7.89278066 20.76760491 -9.08728689 21.25458806 -11.5 21.875 C-13.1680092 21.54845105 -14.83450604 21.21414414 -16.5 20.875 C-29.61571697 19.9421152 -43.99169183 19.02673143 -55.0625 27.25 C-60.51401619 33.12086359 -60.92614354 37.89201721 -60.72265625 45.6953125 C-60.12796697 54.18789269 -57.14866048 62.31467532 -52.1875 69.25 C-51.630625 70.11625 -51.07375 70.9825 -50.5 71.875 C-50.83 72.865 -51.16 73.855 -51.5 74.875 C-60.14188543 64.51067693 -65.12514159 52.75378381 -64.875 39.16796875 C-64.14549739 32.76202397 -61.53620183 27.14450525 -56.5 23 C-54.6484375 21.90234375 -54.6484375 21.90234375 -52.5 20.875 C-51.28183594 20.28912109 -51.28183594 20.28912109 -50.0390625 19.69140625 C-38.72851464 15.30970608 -26.4171845 16.51281789 -14.5 16.875 C-14.11134766 15.53695312 -14.11134766 15.53695312 -13.71484375 14.171875 C-12.51605413 10.91856811 -11.21679688 8.81207998 -9.0625 6.125 C-8.46566406 5.36703125 -7.86882812 4.6090625 -7.25390625 3.828125 C-4.96726447 1.2817533 -3.52429875 -0.17621494 0 0 Z " fill="#55211B" transform="translate(126.5,18.125)"/>
<path d="M0 0 C1.11375 0.5053125 2.2275 1.010625 3.375 1.53125 C11.04613569 5.11743044 17.68456044 9.30816758 24 15 C24.64582031 15.56460938 25.29164063 16.12921875 25.95703125 16.7109375 C32.66861398 22.93998814 37.58006758 30.42089785 38.2734375 39.6328125 C38.73346658 53.85497457 36.01176465 67.15856804 33 81 C28.73061117 100.73093251 25.84818941 119.17044172 25.75 139.375 C25.7445517 140.05941162 25.73910339 140.74382324 25.73348999 141.44897461 C25.20068436 156.3499392 25.20068436 156.3499392 30 170 C36.63274032 172.5718789 42.99580544 173.0514681 49.75 170.6875 C52.57547044 169.22042881 55.3145079 167.70894952 58 166 C57.27914337 160.65536301 54.77632868 156.17330007 52.3515625 151.43945312 C49.93897655 146.52034858 49.93897655 146.52034858 50.2890625 143.53515625 C50.52367187 143.02855469 50.75828125 142.52195313 51 142 C52.9434004 144.9151006 54.09231048 147.56492622 55.375 150.8125 C56.7901326 154.30400276 58.13060778 157.4685119 60.375 160.5 C62 163 62 163 62.125 165.0625 C59.63073522 169.35817823 54.91419024 172.69356325 50.3203125 174.49609375 C42.44125738 176.20720168 33.95124336 176.3265851 27 172 C14.66674423 153.28747401 22.36869187 115.09586537 26.3984375 94.65234375 C28.18399996 86.04270503 30.10485247 77.4659028 32.27734375 68.9453125 C35.39234929 56.51461431 38.57062197 40.19136556 32.5 28.21875 C25.42414262 17.75237762 16.22454266 10.61227133 5 5 C3.46331135 4.77532169 1.92031946 4.59203195 0.375 4.4375 C-0.44226563 4.35371094 -1.25953125 4.26992188 -2.1015625 4.18359375 C-2.72804687 4.12300781 -3.35453125 4.06242187 -4 4 C-3.34 3.34 -2.68 2.68 -2 2 C-17.12804249 -4.50600575 -32.13023248 -6.64856132 -48 -1 C-36.66185587 -13.6097117 -12.92506464 -6.00092287 0 0 Z " fill="#5C231E" transform="translate(127,59)"/>
<path d="M0 0 C5.46624707 2.35900777 8.45072189 5.96148471 10.8046875 11.38671875 C13.95883807 23.86178864 11.15097623 36.09934953 4.6796875 47.01171875 C3.73777514 48.4807116 2.78165695 49.94080396 1.8046875 51.38671875 C1.1446875 52.37671875 0.4846875 53.36671875 -0.1953125 54.38671875 C0.8153125 54.32484375 1.8259375 54.26296875 2.8671875 54.19921875 C7.35968122 54.41314702 9.81554711 55.43285407 13.8046875 57.38671875 C10.51001694 58.48494227 9.98168792 58.22819454 6.8046875 57.38671875 C0.2714402 56.98016356 -5.69991202 57.33909576 -12.03515625 58.92578125 C-16.95788092 59.9761999 -21.38561097 60.29156951 -25.9453125 58.01171875 C-32.0331359 50.90925811 -33.99529391 44.32376879 -33.609375 34.98046875 C-32.34659988 24.02053377 -28.73858917 14.99335702 -20.2578125 7.7265625 C-15.79228325 4.38671875 -15.79228325 4.38671875 -13.1953125 4.38671875 C-13.1953125 3.06671875 -13.1953125 1.74671875 -13.1953125 0.38671875 C-9.14712616 -1.63737442 -4.27844047 -1.19522269 0 0 Z M-23.1953125 12.38671875 C-28.53632656 20.01491347 -31.58585313 26.83664056 -31.5078125 36.26171875 C-31.50217285 36.96989746 -31.4965332 37.67807617 -31.49072266 38.40771484 C-31.32640488 45.47012557 -30.09523658 50.40618675 -25.5703125 55.94921875 C-23.68079149 57.67078233 -22.67772719 58.33675113 -20.12109375 58.6015625 C-17.74289817 58.37328893 -15.51985156 57.93746738 -13.1953125 57.38671875 C-12.34453125 57.21011719 -11.49375 57.03351563 -10.6171875 56.8515625 C-8.46736153 56.39523152 -6.3304978 55.90663385 -4.1953125 55.38671875 C-5.1691143 53.40638232 -6.12611599 51.49435776 -7.3203125 49.63671875 C-8.64712175 46.22492353 -8.77126659 42.95900544 -8.1953125 39.38671875 C-5.1953125 33.88671875 -5.1953125 33.88671875 -2.1953125 32.38671875 C5.10903533 32.15483469 5.10903533 32.15483469 8.8046875 33.38671875 C11.03659471 26.69099713 11.13296272 17.09506088 8.0546875 10.63671875 C5.24849654 6.58333181 3.42960395 4.92835757 -1.1953125 3.38671875 C-9.92615102 2.64681718 -17.2555642 5.75667538 -23.1953125 12.38671875 Z " fill="#0D0A08" transform="translate(135.1953125,95.61328125)"/>
<path d="M0 0 C7.48466258 0.61349693 7.48466258 0.61349693 10 2.5 C11 4 11 4 11 5 C16.94 5.33 22.88 5.66 29 6 C29 6.33 29 6.66 29 7 C28.17798096 7.0093457 27.35596191 7.01869141 26.5090332 7.02832031 C22.77625038 7.08207871 19.04471319 7.16571831 15.3125 7.25 C14.01892578 7.26417969 12.72535156 7.27835937 11.39257812 7.29296875 C9.52182617 7.34130859 9.52182617 7.34130859 7.61328125 7.390625 C6.46641846 7.41157227 5.31955566 7.43251953 4.13793945 7.45410156 C-0.52398039 8.26512255 -2.93112808 10.63109386 -5.78125 14.28125 C-7.36093522 17.80516319 -7.46916977 20.64622093 -7.5 24.5 C-7.54640625 26.43359375 -7.54640625 26.43359375 -7.59375 28.40625 C-6.70412414 33.79082756 -3.83742298 35.61964742 0.35546875 38.76953125 C3.73887456 40.34378949 6.59551404 40.51380907 10.3125 40.6875 C11.56675781 40.75324219 12.82101563 40.81898438 14.11328125 40.88671875 C15.06589844 40.92410156 16.01851562 40.96148437 17 41 C17.76903535 52.72778916 13.33711457 62.90369421 6 72 C2.94755043 74.87716039 -0.37401253 76.90575425 -4 79 C-4.74604492 79.43376953 -5.49208984 79.86753906 -6.26074219 80.31445312 C-8.85164 81.81078975 -11.45370028 83.28510833 -14.0625 84.75 C-14.90127686 85.22244141 -15.74005371 85.69488281 -16.60424805 86.18164062 C-21.92482773 89.09485727 -27.174959 91.30333496 -33 93 C-32.83242187 94.13179688 -32.66484375 95.26359375 -32.4921875 96.4296875 C-32.28587625 97.9113774 -32.08017883 99.39315286 -31.875 100.875 C-31.76285156 101.62136719 -31.65070313 102.36773437 -31.53515625 103.13671875 C-31.27233554 105.08159197 -31.1283485 107.04165038 -31 109 C-31.99 109.99 -31.99 109.99 -33 111 C-35.29739071 100.76430387 -36.73574724 90.03982071 -33 80 C-32.67 80 -32.34 80 -32 80 C-32.33 82.97 -32.66 85.94 -33 89 C-29.03534929 86.99139467 -25.07956486 84.96588074 -21.125 82.9375 C-20.01640625 82.37611328 -18.9078125 81.81472656 -17.765625 81.23632812 C0.53001597 71.8194541 7.41326085 63.0361433 14 44 C13.39414063 44.05800781 12.78828125 44.11601562 12.1640625 44.17578125 C4.22460966 44.60329025 -1.53587797 42.5913611 -7.73828125 37.6015625 C-11.92316518 32.95693076 -11.71314167 27.36887375 -11.484375 21.3828125 C-10.58808137 15.12321347 -7.62838988 11.30537939 -3.0625 7.125 C-0.05433011 5.03769844 2.4749423 3.9232294 6 3 C4.02 2.34 2.04 1.68 0 1 C0 0.67 0 0.34 0 0 Z " fill="#57211C" transform="translate(209,90)"/>
<path d="M0 0 C-0.0825 1.051875 -0.165 2.10375 -0.25 3.1875 C0.04358298 7.66464045 1.12642946 8.70384556 4 12 C4.33 13.051875 4.66 14.10375 5 15.1875 C5.700357 18.12643193 5.700357 18.12643193 8.0625 19.17578125 C8.701875 19.44777344 9.34125 19.71976563 10 20 C9.39414063 20.03738281 8.78828125 20.07476562 8.1640625 20.11328125 C3.5968618 20.47163084 -0.47713366 21.05330843 -4.8125 22.5625 C-10.68336157 24.47589686 -19.29280159 25.85359921 -25 23 C-24.62257767 16.83543524 -22.84129692 13.82624485 -19 9 C-21.64 9.66 -24.28 10.32 -27 11 C-26.4375 9.1875 -26.4375 9.1875 -25 7 C-19.85396291 4.45678476 -14.71077844 3.05003884 -9.125 1.8125 C-8.35414062 1.63525391 -7.58328125 1.45800781 -6.7890625 1.27539062 C-1.19507119 0 -1.19507119 0 0 0 Z " fill="#9C6547" transform="translate(73,113)"/>
<path d="M0 0 C1.58357459 0.31127516 3.16684993 0.62407289 4.75 0.9375 C6.07257813 1.19853516 6.07257813 1.19853516 7.421875 1.46484375 C9.63235053 1.92368488 11.81512068 2.43336074 14 3 C14 3.66 14 4.32 14 5 C14.57363281 5.28359375 15.14726563 5.5671875 15.73828125 5.859375 C23.16105152 9.60281009 23.16105152 9.60281009 26 12 C27 15.3125 27 15.3125 27 18 C25.39805929 18.98280415 23.79336258 19.96111717 22.1875 20.9375 C21.29417969 21.48277344 20.40085937 22.02804688 19.48046875 22.58984375 C15.1645835 25.0434415 10.89126621 26.0493674 6 25 C1.56145603 22.4210529 -1.41678007 19.59618087 -3.1875 14.75 C-2.92897996 9.57959928 -1.57254212 4.91308357 0 0 Z " fill="#B6797C" transform="translate(76,179)"/>
<path d="M0 0 C-1.18335937 0.17015625 -2.36671875 0.3403125 -3.5859375 0.515625 C-15.17047257 2.25502767 -15.17047257 2.25502767 -26.15234375 6.23046875 C-28 7 -28 7 -31 7 C-30.505 9.475 -30.505 9.475 -30 12 C-30.66 11.34 -31.32 10.68 -32 10 C-35.30467968 9.42803621 -37.74532053 9.13930201 -40.6171875 11.109375 C-45.64100809 16.36746702 -47.70194516 23.23802448 -50 30 C-48.02 27.03 -46.04 24.06 -44 21 C-42.35 21.33 -40.7 21.66 -39 22 C-37.2303454 26.4990065 -36.82581682 29.88195111 -37.25 34.6875 C-37.33765625 35.80511719 -37.4253125 36.92273438 -37.515625 38.07421875 C-38 41 -38 41 -40 44 C-40 37.4 -40 30.8 -40 24 C-44.36767083 25.06652496 -44.36767083 25.06652496 -46.5625 28.5 C-52.42897861 38.57229251 -53.16658823 48.56094162 -53 60 C-52.34 60 -51.68 60 -51 60 C-51.061875 59.071875 -51.12375 58.14375 -51.1875 57.1875 C-51 54 -51 54 -49.5 52.125 C-49.005 51.75375 -48.51 51.3825 -48 51 C-48.33 53.31 -48.66 55.62 -49 58 C-46.37613513 54.93882432 -46 54.26826873 -46 50 C-44.68 50 -43.36 50 -42 50 C-41.67 48.35 -41.34 46.7 -41 45 C-38.9740805 50.51207967 -41.84558997 55.86822207 -44 61 C-45.51220194 63.55878238 -47.11130982 65.6916009 -49 68 C-50.8258428 66.1741572 -51.82300078 64.7245005 -53.0625 62.5 C-53.57490234 61.58734375 -53.57490234 61.58734375 -54.09765625 60.65625 C-55.80721628 57.51835626 -56.09450144 55.59105484 -56 52 C-57.18078125 52.30035156 -58.3615625 52.60070312 -59.578125 52.91015625 C-61.13529623 53.29475878 -62.69259468 53.67884649 -64.25 54.0625 C-65.02730469 54.26166016 -65.80460937 54.46082031 -66.60546875 54.66601562 C-67.73662109 54.94155273 -67.73662109 54.94155273 -68.890625 55.22265625 C-69.58188477 55.39547119 -70.27314453 55.56828613 -70.98535156 55.74633789 C-73.25070809 56.03156637 -74.8368312 55.68076195 -77 55 C-74.96185767 54.32263519 -72.91929445 53.65856466 -70.875 53 C-69.73804688 52.62875 -68.60109375 52.2575 -67.4296875 51.875 C-64.12104059 51.03088051 -61.39471984 50.83490724 -58 51 C-57.78085938 50.05382812 -57.56171875 49.10765625 -57.3359375 48.1328125 C-49.39530474 14.65709209 -49.39530474 14.65709209 -42 9 C-39.25766285 7.71193255 -36.55360004 6.74728455 -33.65625 5.86328125 C-31.30385492 5.09875285 -29.61162691 4.27847275 -27.5625 2.9375 C-20.31455087 -1.45993677 -7.43063628 -4.95375752 0 0 Z " fill="#080605" transform="translate(128,62)"/>
<path d="M0 0 C1.32 0 2.64 0 4 0 C7.48068859 6.96137719 4.82590408 17.00945019 2.65625 24.05078125 C2.33140625 25.01564453 2.33140625 25.01564453 2 26 C0.68 26 -0.64 26 -2 26 C-1.731875 26.556875 -1.46375 27.11375 -1.1875 27.6875 C-1.125625 28.450625 -1.06375 29.21375 -1 30 C-3.4375 32.75 -3.4375 32.75 -6 35 C-5.67 32.69 -5.34 30.38 -5 28 C-5.66 30.64 -6.32 33.28 -7 36 C-7.66 36 -8.32 36 -9 36 C-12.07902753 26.76291742 -9.10362258 15.95977579 -5 7.5 C-1.94444444 1.94444444 -1.94444444 1.94444444 0 0 Z " fill="#F1F1F1" transform="translate(84,86)"/>
<path d="M0 0 C1.9934082 0.16113281 1.9934082 0.16113281 4 1 C5.17260742 2.50292969 5.17260742 2.50292969 6.10546875 4.421875 C6.44900391 5.11796875 6.79253906 5.8140625 7.14648438 6.53125 C7.49001953 7.2634375 7.83355469 7.995625 8.1875 8.75 C8.54263672 9.46671875 8.89777344 10.1834375 9.26367188 10.921875 C11.03827277 14.58556718 12.46209098 17.92152567 13 22 C5.61908094 22.47618833 0.67834473 21.02958023 -6 18 C-7.66376648 17.3261281 -9.32968226 16.65746549 -11 16 C-9.66534338 12.22959506 -7.99723337 9.42875097 -5.5 6.3125 C-4.8915625 5.54550781 -4.283125 4.77851563 -3.65625 3.98828125 C-2 2 -2 2 0 0 Z " fill="#E85065" transform="translate(124,20)"/>
<path d="M0 0 C0.66 0.33 1.32 0.66 2 1 C1.57847656 1.59167969 1.15695313 2.18335937 0.72265625 2.79296875 C-0.09912109 3.97826172 -0.09912109 3.97826172 -0.9375 5.1875 C-1.75541016 6.35345703 -1.75541016 6.35345703 -2.58984375 7.54296875 C-4.0456289 10.07950299 -4.59613435 12.1218182 -5 15 C2.97136597 15.28696918 9.864756 15.35655671 17.44921875 12.6796875 C22.46609772 11.34287748 27.87310364 11.26655901 33 12 C34.87890625 13.5234375 34.87890625 13.5234375 36 15 C35.43925781 14.84144531 34.87851563 14.68289062 34.30078125 14.51953125 C25.71058203 12.57980885 17.72931482 14.60223516 9.48046875 17.02734375 C6.32000456 17.91057112 3.24399305 18.52805614 0 19 C1.65 20.65 3.3 22.3 5 24 C4.67 24.66 4.34 25.32 4 26 C3.48614746 25.45472656 2.97229492 24.90945312 2.44287109 24.34765625 C0.10280441 21.88276495 -2.26051534 19.44146789 -4.625 17 C-5.43324219 16.14148438 -6.24148437 15.28296875 -7.07421875 14.3984375 C-8.26337891 13.18027344 -8.26337891 13.18027344 -9.4765625 11.9375 C-10.19924316 11.18339844 -10.92192383 10.42929688 -11.66650391 9.65234375 C-14.65250925 7.53795955 -16.41552112 7.53200413 -20 8 C-22.3407136 9.89838882 -22.3407136 9.89838882 -22.1875 13.125 C-21.39119521 17.97429196 -17.70801368 20.46850207 -14.12890625 23.49609375 C-12.16216756 25.19232578 -12.16216756 25.19232578 -10 25 C-10.969375 24.236875 -11.93875 23.47375 -12.9375 22.6875 C-15.42086332 20.73251185 -15.9521672 20.14349841 -17 17 C-16.34 17 -15.68 17 -15 17 C-15 17.66 -15 18.32 -15 19 C-14.41734375 19.24878906 -13.8346875 19.49757812 -13.234375 19.75390625 C-7.15311757 23.14537674 -2.94267619 29.98997736 1 35.5625 C4.56103442 40.57328361 8.52248421 44.80627042 13 49 C13.66 49.66 14.32 50.32 15 51 C10.23295896 51 8.0047011 47.76118482 4.609375 44.640625 C2.16875529 42.17077631 0.1289943 39.65878984 -1.9375 36.875 C-5.48498639 32.22385117 -9.31476452 29.732793 -14.30078125 26.77734375 C-19.87706411 23.10555113 -24.39867043 18.82162337 -25.8125 12.1875 C-25 9 -25 9 -22.875 6.5625 C-19.46537255 4.70944161 -17.81804737 4.28411612 -14 5 C-11.3125 7.375 -11.3125 7.375 -9 10 C-8.01 10.66 -7.02 11.32 -6 12 C-5.855625 11.236875 -5.71125 10.47375 -5.5625 9.6875 C-5 7 -5 7 -4 4 C-5.32 4 -6.64 4 -8 4 C-7.67 3.01 -7.34 2.02 -7 1 C-7 1.66 -7 2.32 -7 3 C-5.88625 2.484375 -4.7725 1.96875 -3.625 1.4375 C-2.42875 0.963125 -1.2325 0.48875 0 0 Z " fill="#0A080A" transform="translate(53,121)"/>
<path d="M0 0 C0.33 0 0.66 0 1 0 C1.01981934 1.08829102 1.03963867 2.17658203 1.06005859 3.29785156 C1.13695401 7.39083432 1.22553108 11.48349973 1.31738281 15.57617188 C1.35532993 17.33717519 1.39023797 19.09824702 1.421875 20.859375 C0.90322445 37.6522322 0.90322445 37.6522322 6 53 C12.63274032 55.5718789 18.99580544 56.0514681 25.75 53.6875 C28.57547044 52.22042881 31.3145079 50.70894952 34 49 C33.27914337 43.65536301 30.77632868 39.17330007 28.3515625 34.43945312 C25.93897655 29.52034858 25.93897655 29.52034858 26.2890625 26.53515625 C26.52367187 26.02855469 26.75828125 25.52195313 27 25 C28.9434004 27.9151006 30.09231048 30.56492622 31.375 33.8125 C32.7901326 37.30400276 34.13060778 40.4685119 36.375 43.5 C38 46 38 46 38.125 48.0625 C35.63073522 52.35817823 30.91419024 55.69356325 26.3203125 57.49609375 C18.44125738 59.20720168 9.95124336 59.3265851 3 55 C-2.19592813 47.11652283 -1.31193156 36.85660842 -1.625 27.75 C-1.6765625 26.49058594 -1.728125 25.23117188 -1.78125 23.93359375 C-2.45304165 4.90608329 -2.45304165 4.90608329 0 0 Z " fill="#57221C" transform="translate(151,176)"/>
<path d="M0 0 C0.33 0 0.66 0 1 0 C1.30048911 5.85397307 1.30629376 10.68721809 -0.875 16.1875 C-1.84530095 19.07551839 -2.26749693 20.34181676 -1.109375 23.19140625 C2.47518497 28.16262495 7.46978449 33.23489224 13 36 C18.89558909 36.84222701 21.60228126 35.95066548 26.5 32.5 C28.0136435 31.35108988 29.51849337 30.1900627 31 29 C31.66 29.33 32.32 29.66 33 30 C28.16859115 34.41687969 23.76134617 38.43979951 17.0625 39.4375 C14.05649066 39.00807009 12.867079 38.44251238 10.375 36.875 C9.26125 36.25625 8.1475 35.6375 7 35 C3.30709954 36.10702202 1.8963739 38.23525979 -0.05859375 41.4375 C-0.60966797 42.33339844 -1.16074219 43.22929687 -1.72851562 44.15234375 C-2.57446289 45.56193359 -2.57446289 45.56193359 -3.4375 47 C-4.27764648 48.36318359 -4.27764648 48.36318359 -5.13476562 49.75390625 C-8.75153898 55.68760909 -11.99706508 61.73418728 -15 68 C-15.66 68 -16.32 68 -17 68 C-15.36668797 61.7512643 -11.98014887 56.54781182 -8.6875 51.0625 C-8.11837891 50.09892578 -7.54925781 49.13535156 -6.96289062 48.14257812 C-4.47249832 43.95951963 -1.96487476 39.85901655 0.91796875 35.93359375 C3.19292343 33.3277258 3.19292343 33.3277258 3 31 C-0.51375901 31.56284469 -3.11068481 32.42108106 -6.15234375 34.2578125 C-6.92223633 34.71567139 -7.69212891 35.17353027 -8.48535156 35.64526367 C-9.29456055 36.13357666 -10.10376953 36.62188965 -10.9375 37.125 C-16.81753232 40.58852653 -22.69076555 44.04480285 -28.75 47.1875 C-30.32007813 48.01314453 -30.32007813 48.01314453 -31.921875 48.85546875 C-35.62868701 50.23376306 -38.07540754 50.55557651 -42 50 C-44.87109375 47.8125 -44.87109375 47.8125 -47.4375 45 C-48.30246094 44.071875 -49.16742188 43.14375 -50.05859375 42.1875 C-50.69925781 41.465625 -51.33992188 40.74375 -52 40 C-51.67 39.34 -51.34 38.68 -51 38 C-50.03900391 39.10021484 -50.03900391 39.10021484 -49.05859375 40.22265625 C-48.19363281 41.15980469 -47.32867187 42.09695312 -46.4375 43.0625 C-45.59058594 44.00222656 -44.74367188 44.94195312 -43.87109375 45.91015625 C-41.15940919 48.29062739 -41.15940919 48.29062739 -37.796875 48.12890625 C-32.76701846 46.63340364 -28.4072079 44.38229491 -23.8125 41.875 C-22.88864502 41.38088623 -21.96479004 40.88677246 -21.01293945 40.37768555 C-14.25067501 36.74029473 -7.5656444 32.98288573 -1 29 C-2.08784968 25.75016865 -2.08784968 25.75016865 -4 23 C-4.4488038 18.39976109 -3.43567299 15.31688885 -1.734375 11.16796875 C-0.50348076 7.53421182 -0.25574974 3.80978924 0 0 Z " fill="#0F0C0A" transform="translate(69,175)"/>
<path d="M0 0 C5.46624707 2.35900777 8.45072189 5.96148471 10.8046875 11.38671875 C11.77750127 15.1066607 11.93938807 18.61264186 11.9296875 22.44921875 C11.93355469 23.98255859 11.93355469 23.98255859 11.9375 25.546875 C11.82262288 28.00321807 11.51243791 30.04440191 10.8046875 32.38671875 C10.1446875 32.38671875 9.4846875 32.38671875 8.8046875 32.38671875 C8.85109375 31.25234375 8.8975 30.11796875 8.9453125 28.94921875 C9.51061506 17.49379005 9.51061506 17.49379005 4.8046875 7.38671875 C1.01856807 4.63317735 -2.41489793 3.84259599 -7.11328125 4.03125 C-13.57947055 5.13523354 -19.89523141 9.24757747 -23.7265625 14.4765625 C-29.35156524 23.20358881 -31.35620377 32.14959219 -32.1953125 42.38671875 C-32.5253125 42.38671875 -32.8553125 42.38671875 -33.1953125 42.38671875 C-34.0308573 30.8051395 -31.73364042 20.23370056 -24.0703125 11.265625 C-21.30539038 8.49494263 -18.54388185 6.42212365 -15.1953125 4.38671875 C-14.5353125 4.38671875 -13.8753125 4.38671875 -13.1953125 4.38671875 C-13.1953125 3.06671875 -13.1953125 1.74671875 -13.1953125 0.38671875 C-9.14712616 -1.63737442 -4.27844047 -1.19522269 0 0 Z " fill="#130F0D" transform="translate(135.1953125,95.61328125)"/>
<path d="M0 0 C0 0.99 0 1.98 0 3 C-1.90625 4.796875 -1.90625 4.796875 -4.5 6.75 C-9.16260866 10.33662205 -13.61532094 14.0807338 -18 18 C-20.32536063 14.51195905 -20.33457898 13.09859246 -20 9 C-19.07849676 6.44640817 -18.59744678 5.29026383 -16.12060547 4.08691406 C-15.37697754 3.89838867 -14.63334961 3.70986328 -13.8671875 3.515625 C-13.06152344 3.30292969 -12.25585938 3.09023437 -11.42578125 2.87109375 C-10.58402344 2.66613281 -9.74226563 2.46117187 -8.875 2.25 C-7.60076172 1.91935547 -7.60076172 1.91935547 -6.30078125 1.58203125 C-4.20420652 1.0402198 -2.102535 0.51820055 0 0 Z " fill="#E3A6AF" transform="translate(123,177)"/>
<path d="M0 0 C3.02775601 1.0597146 4.00903662 2.05873584 5.5 4.875 C5.17 5.865 4.84 6.855 4.5 7.875 C3.18 6.225 1.86 4.575 0.5 2.875 C-2.26754183 3.23995057 -3.35217441 3.72113423 -5.31640625 5.765625 C-5.89261719 6.54421875 -6.46882813 7.3228125 -7.0625 8.125 C-7.66320312 8.93324219 -8.26390625 9.74148437 -8.8828125 10.57421875 C-10.5486246 12.94417848 -12.10654983 15.33400263 -13.5 17.875 C-11.85 18.205 -10.2 18.535 -8.5 18.875 C-8.17 19.865 -7.84 20.855 -7.5 21.875 C-16.41 21.215 -25.32 20.555 -34.5 19.875 C-34.005 18.39 -34.005 18.39 -33.5 16.875 C-27.23 16.875 -20.96 16.875 -14.5 16.875 C-13.84 14.895 -13.18 12.915 -12.5 10.875 C-10.87890625 8.390625 -10.87890625 8.390625 -9.0625 6.125 C-8.46566406 5.36703125 -7.86882812 4.6090625 -7.25390625 3.828125 C-4.96726447 1.2817533 -3.52429875 -0.17621494 0 0 Z " fill="#692724" transform="translate(126.5,18.125)"/>
<path d="M0 0 C1.12148437 -0.01933594 2.24296875 -0.03867188 3.3984375 -0.05859375 C7.40703637 0.55774046 8.88234745 1.45451192 11.625 4.4375 C15.04796784 11.26776993 15.55565921 18.41044953 16.3125 25.9375 C16.44205078 27.14148438 16.57160156 28.34546875 16.70507812 29.5859375 C17.0211132 32.53559816 17.32748266 35.48592392 17.625 38.4375 C16.965 38.4375 16.305 38.4375 15.625 38.4375 C14.40931902 32.21683455 13.47590188 26.0554769 12.8125 19.75 C12.04301067 13.7110477 10.81774604 8.97964154 6.625 4.4375 C3.62186252 2.93593126 0.83432478 3.34468796 -2.5 3.375 C-3.78132812 3.38402344 -5.06265625 3.39304687 -6.3828125 3.40234375 C-7.37023437 3.41394531 -8.35765625 3.42554687 -9.375 3.4375 C-6.72249409 -0.1085806 -4.26344633 0.00487809 0 0 Z " fill="#1E130D" transform="translate(139.375,83.5625)"/>
<path d="M0 0 C0.66 0.33 1.32 0.66 2 1 C1.34 1.66 0.68 2.32 0 3 C-0.63098383 5.89596539 -0.63098383 5.89596539 0 9 C2.37770844 11.44600614 2.37770844 11.44600614 5.5625 13.4375 C9.9700152 16.49114446 13.86755843 19.62783878 17.55859375 23.5234375 C19.09640075 25.16654432 19.09640075 25.16654432 21.5 26.9375 C27.93099543 32.24307123 32.57747936 39.00172559 37 46 C33.23217259 44.49790399 31.49860348 42.38108671 29.0625 39.1875 C19.93132404 27.76604549 8.13831546 13.99451361 -6 9 C-5.01 8.67 -4.02 8.34 -3 8 C-3.061875 7.236875 -3.12375 6.47375 -3.1875 5.6875 C-3 3 -3 3 -1.5 1.1875 C-1.005 0.795625 -0.51 0.40375 0 0 Z " fill="#0C0907" transform="translate(124,197)"/>
<path d="M0 0 C5.21130865 0.40873009 8.39958746 1.081904 12 5 C13.46116716 8.86779544 13.16487794 10.56817682 11.6875 14.4375 C6.44790549 22.59861936 -4.57021604 27.16684588 -12.8125 31.6875 C-14.82137023 32.79128894 -16.82796539 33.8992307 -18.83203125 35.01171875 C-19.70577393 35.49084717 -20.5795166 35.96997559 -21.47973633 36.46362305 C-24.18206811 38.11099047 -26.57030246 39.97629655 -29 42 C-29.66 41.67 -30.32 41.34 -31 41 C-23.88779003 35.05449978 -16.41050907 30.80885647 -8.171875 26.62695312 C-0.85735236 22.79091506 7.46637616 18.38178239 10.3125 10.25 C10.26013431 6.98787633 10.26013431 6.98787633 8.4375 4.6875 C5.70862038 2.79827565 3.19117873 1.87032147 0 1 C0 0.67 0 0.34 0 0 Z " fill="#0C0908" transform="translate(133,162)"/>
<path d="M0 0 C2 2 2 2 2.046875 4.06640625 C1.56640361 8.10615913 1.04070415 12.04805525 0.0625 16 C-1.75052003 23.511083 -2.22203037 31.32789526 -3 39 C-3.33 39 -3.66 39 -4 39 C-5.90407912 29.47960442 -4.48688061 21.3759285 -2.5 12 C-2.26152344 10.84371094 -2.02304688 9.68742188 -1.77734375 8.49609375 C-1.19189634 5.66252827 -0.59928499 2.83066529 0 0 Z " fill="#622621" transform="translate(156,143)"/>
<path d="M0 0 C7.48466258 0.61349693 7.48466258 0.61349693 10 2.5 C11 4 11 4 11 5 C16.94 5.33 22.88 5.66 29 6 C29 6.33 29 6.66 29 7 C27.75126099 7.029729 27.75126099 7.029729 26.47729492 7.06005859 C23.385235 7.13820742 20.29356617 7.22490206 17.2019043 7.31738281 C15.2070464 7.37444092 13.2119146 7.42164442 11.21679688 7.46875 C9.33637695 7.52675781 9.33637695 7.52675781 7.41796875 7.5859375 C5.68196411 7.63306885 5.68196411 7.63306885 3.91088867 7.68115234 C0.80872972 7.79471033 0.80872972 7.79471033 -2 10 C-2.66 9.34 -3.32 8.68 -4 8 C2.625 4.125 2.625 4.125 6 3 C4.02 2.34 2.04 1.68 0 1 C0 0.67 0 0.34 0 0 Z " fill="#742B2A" transform="translate(209,90)"/>
<path d="M0 0 C0.33 0 0.66 0 1 0 C1 12.87 1 25.74 1 39 C0.67 39 0.34 39 0 39 C-0.36994479 34.89709946 -0.71799978 30.79260902 -1.0625 26.6875 C-1.16626953 25.53958984 -1.27003906 24.39167969 -1.37695312 23.20898438 C-2.82025547 5.64051095 -2.82025547 5.64051095 0 0 Z " fill="#4D1D16" transform="translate(151,176)"/>
<path d="M0 0 C1.26237731 2.52475462 1.09856404 4.31200466 1.0625 7.125 C1.05347656 8.03507812 1.04445312 8.94515625 1.03515625 9.8828125 C1.02355469 10.58148438 1.01195312 11.28015625 1 12 C0.34 12 -0.32 12 -1 12 C-1 8.7 -1 5.4 -1 2 C-2.26714844 2.49113281 -3.53429687 2.98226562 -4.83984375 3.48828125 C-10.15626123 5.26042041 -15.0053612 5.34650837 -20.5625 5.1875 C-21.47580078 5.17396484 -22.38910156 5.16042969 -23.33007812 5.14648438 C-25.55403259 5.11155315 -27.77667952 5.06251586 -30 5 C-30.33 4.34 -30.66 3.68 -31 3 C-29.87722656 3.03480469 -28.75445312 3.06960937 -27.59765625 3.10546875 C-16.94724822 3.39456128 -16.94724822 3.39456128 -6.73828125 0.66796875 C-4.45314921 -0.21013817 -2.4191549 -0.23411176 0 0 Z " fill="#4E1F18" transform="translate(250,91)"/>
<path d="M0 0 C-1.19496094 0.19335938 -2.38992187 0.38671875 -3.62109375 0.5859375 C-15.36669563 2.50284489 -15.36669563 2.50284489 -27 5 C-25.36608091 2.31014681 -24.35739186 1.14381534 -21.3984375 -0.046875 C-5.5862069 -3.72413793 -5.5862069 -3.72413793 0 0 Z " fill="#080303" transform="translate(128,62)"/>
<path d="M0 0 C0.33 0 0.66 0 1 0 C0.67 2.97 0.34 5.94 0 9 C0.99 9.33 1.98 9.66 3 10 C2.01 10.33 1.02 10.66 0 11 C0.16757813 12.27617187 0.33515625 13.55234375 0.5078125 14.8671875 C0.71411808 16.53638719 0.91981583 18.20566209 1.125 19.875 C1.23714844 20.71675781 1.34929687 21.55851562 1.46484375 22.42578125 C1.56152344 23.23144531 1.65820312 24.03710938 1.7578125 24.8671875 C1.8520752 25.61081543 1.94633789 26.35444336 2.04345703 27.12060547 C2 29 2 29 0 31 C-2.29739071 20.76430387 -3.73574724 10.03982071 0 0 Z " fill="#662725" transform="translate(176,170)"/>
<path d="M0 0 C1.65 0.33 3.3 0.66 5 1 C6.7696546 5.4990065 7.17418318 8.88195111 6.75 13.6875 C6.66234375 14.80511719 6.5746875 15.92273438 6.484375 17.07421875 C6 20 6 20 4 23 C4 16.4 4 9.8 4 3 C-0.59037956 4.14759489 -1.33669182 5.29039218 -4 9 C-3.46930939 5.17902761 -2.50298434 2.93828597 0 0 Z " fill="#19120F" transform="translate(84,83)"/>
<path d="M0 0 C3.02775601 1.0597146 4.00903662 2.05873584 5.5 4.875 C5.17 5.865 4.84 6.855 4.5 7.875 C3.18 6.225 1.86 4.575 0.5 2.875 C-2.28931847 3.23589866 -3.34026529 3.70230436 -5.28125 5.80078125 C-5.8484375 6.58839844 -6.415625 7.37601563 -7 8.1875 C-9.30623875 11.35857828 -11.66633427 14.15940368 -14.5 16.875 C-13.07813874 10.71360121 -7.32799127 -0.36639956 0 0 Z " fill="#54211B" transform="translate(126.5,18.125)"/>
<path d="M0 0 C3.63 0 7.26 0 11 0 C10.67 2.64 10.34 5.28 10 8 C6.40634583 6.28484687 2.99783113 4.65192754 0 2 C0 1.34 0 0.68 0 0 Z " fill="#634040" transform="translate(92,182)"/>
<path d="M0 0 C0.66 0.33 1.32 0.66 2 1 C1.67 1.99 1.34 2.98 1 4 C-0.65 4.33 -2.3 4.66 -4 5 C-3.67 6.65 -3.34 8.3 -3 10 C-3.66 9.34 -4.32 8.68 -5 8 C-9.79834561 7.45185969 -9.79834561 7.45185969 -13.9375 9.5 C-14.288125 9.995 -14.63875 10.49 -15 11 C-15.99 10.67 -16.98 10.34 -18 10 C-14.27282125 6.5132844 -10.8611559 5.17267562 -6.09375 3.7265625 C-3.66946798 2.88530046 -1.89279082 1.72820032 0 0 Z " fill="#140909" transform="translate(101,64)"/>
<path d="M0 0 C5.21130865 0.40873009 8.39958746 1.081904 12 5 C13.13334773 8.00003811 13.4543679 9.84845385 12.26171875 12.87109375 C10.52293789 16.10025821 9.06923244 17.95384504 6 20 C6 17 6 17 8.0625 14.75 C10.29429261 12.07127571 10.29429261 12.07127571 10.3125 8.4375 C9.36916174 4.94505647 9.36916174 4.94505647 6.9140625 3.6640625 C4.63538808 2.65051962 2.37082928 1.77111821 0 1 C0 0.67 0 0.34 0 0 Z " fill="#1C1411" transform="translate(133,162)"/>
<path d="M0 0 C-5.93661416 2.41862058 -11.68878497 3.9007105 -18 5 C-15.53286908 2.04276563 -13.24499218 1.22933306 -9.5625 0.25 C-8.61503906 -0.01296875 -7.66757813 -0.2759375 -6.69140625 -0.546875 C-4.02561448 -0.99568755 -2.52080903 -0.88198519 0 0 Z " fill="#0D0A08" transform="translate(145,192)"/>
<path d="M0 0 C0.66 0.33 1.32 0.66 2 1 C1.34 1.66 0.68 2.32 0 3 C-0.50010524 5.95769177 -0.50010524 5.95769177 0 9 C1.88077873 10.91256712 1.88077873 10.91256712 4 12 C3.67 12.66 3.34 13.32 3 14 C0 12 -3 10 -6 8 C-5.01 8 -4.02 8 -3 8 C-3.061875 7.236875 -3.12375 6.47375 -3.1875 5.6875 C-3 3 -3 3 -1.5 1.1875 C-1.005 0.795625 -0.51 0.40375 0 0 Z " fill="#050403" transform="translate(124,197)"/>
<path d="M0 0 C1.2065625 0.0309375 1.2065625 0.0309375 2.4375 0.0625 C1.75 2.5 1.75 2.5 0.4375 5.0625 C-2.1875 5.875 -2.1875 5.875 -4.5625 6.0625 C-3.48963568 0.08511307 -3.48963568 0.08511307 0 0 Z " fill="#E9E9E9" transform="translate(134.5625,130.9375)"/>
<path d="M0 0 C0.66 0.99 1.32 1.98 2 3 C0.87104609 7.17712945 -1.54463225 10.48063956 -4 14 C-4.33 13.34 -4.66 12.68 -5 12 C-4.26821134 9.92803369 -3.44100997 7.8891448 -2.5625 5.875 C-2.08941406 4.77929688 -1.61632812 3.68359375 -1.12890625 2.5546875 C-0.75636719 1.71164063 -0.38382812 0.86859375 0 0 Z " fill="#925F41" transform="translate(82,79)"/>
<path d="M0 0 C0.66 0.33 1.32 0.66 2 1 C1.01 3.31 0.02 5.62 -1 8 C-1.66 8 -2.32 8 -3 8 C-3.33 10.31 -3.66 12.62 -4 15 C-4.33 15 -4.66 15 -5 15 C-5.42277492 8.86976372 -4.99795398 5.96715495 -1 1 C-0.67 0.67 -0.34 0.34 0 0 Z " fill="#383837" transform="translate(131,128)"/>
<path d="M0 0 C1.98 0.99 1.98 0.99 4 2 C4 3.98 4 5.96 4 8 C2.68 8 1.36 8 0 8 C0 5.36 0 2.72 0 0 Z " fill="#665B70" transform="translate(71,176)"/>
<path d="M0 0 C3.63 0 7.26 0 11 0 C11 2.31 11 4.62 11 7 C10.34 7 9.68 7 9 7 C8.67 5.35 8.34 3.7 8 2 C5.36 1.67 2.72 1.34 0 1 C0 0.67 0 0.34 0 0 Z " fill="#6B2725" transform="translate(215,131)"/>
<path d="M0 0 C0.66 0 1.32 0 2 0 C2.8125 1.6875 2.8125 1.6875 3 4 C0.5625 6.75 0.5625 6.75 -2 9 C-1.51421457 5.87709365 -1.0013988 3.00419641 0 0 Z " fill="#D7D7D7" transform="translate(80,112)"/>
<path d="M0 0 C0 0.99 0 1.98 0 3 C-3 5.1875 -3 5.1875 -6 7 C-6.33 5.35 -6.66 3.7 -7 2 C-4.69 1.34 -2.38 0.68 0 0 Z " fill="#DCA1A8" transform="translate(123,177)"/>
<path d="M0 0 C0.99 0.33 1.98 0.66 3 1 C0.03 4.96 0.03 4.96 -3 9 C-3.33 7.68 -3.66 6.36 -4 5 C-2.0625 2.25 -2.0625 2.25 0 0 Z " fill="#4F1E17" transform="translate(204,99)"/>
<path d="M0 0 C1.17539996 0.92652701 2.34010577 1.86663387 3.5 2.8125 C4.1496875 3.33457031 4.799375 3.85664063 5.46875 4.39453125 C7 6 7 6 7 9 C5.82460004 8.07347299 4.65989423 7.13336613 3.5 6.1875 C2.52546875 5.40439453 2.52546875 5.40439453 1.53125 4.60546875 C0 3 0 3 0 0 Z " fill="#16100C" transform="translate(10,205)"/>
<path d="M0 0 C0.66 0.66 1.32 1.32 2 2 C1.9765625 4.3828125 1.9765625 4.3828125 1.625 7.125 C1.51414063 8.03507813 1.40328125 8.94515625 1.2890625 9.8828125 C1.19367188 10.58148438 1.09828125 11.28015625 1 12 C-1.58464442 7.61991557 -0.81479148 4.88874887 0 0 Z " fill="#6C2A26" transform="translate(156,143)"/>
<path d="M0 0 C0.66 0.33 1.32 0.66 2 1 C-1.465 3.97 -1.465 3.97 -5 7 C-5.66 6.67 -6.32 6.34 -7 6 C-7 5.01 -7 4.02 -7 3 C-4.69631264 1.93347808 -2.35981813 0.93578995 0 0 Z " fill="#0F0D0F" transform="translate(130,173)"/>
<path d="M0 0 C0.33 0 0.66 0 1 0 C1.33 4.62 1.66 9.24 2 14 C1.34 14 0.68 14 0 14 C-1.39151652 9.20699867 -0.68662689 4.84864218 0 0 Z " fill="#373534" transform="translate(103,129)"/>
<path d="M0 0 C2 2 2 2 2.1953125 4.8203125 C2.16050781 6.45613281 2.16050781 6.45613281 2.125 8.125 C2.10695312 9.22070312 2.08890625 10.31640625 2.0703125 11.4453125 C2.04710937 12.28835937 2.02390625 13.13140625 2 14 C1.67 14 1.34 14 1 14 C0.855625 12.7625 0.71125 11.525 0.5625 10.25 C0.28388159 7.96452146 -0.03818221 5.85490762 -0.625 3.625 C-1 2 -1 2 0 0 Z " fill="#8A3135" transform="translate(199,106)"/>
<path d="M0 0 C0.66 0.33 1.32 0.66 2 1 C0.68 2.32 -0.64 3.64 -2 5 C-2 4.34 -2 3.68 -2 3 C-3.98 3.33 -5.96 3.66 -8 4 C-7.67 3.01 -7.34 2.02 -7 1 C-7 1.66 -7 2.32 -7 3 C-5.88625 2.484375 -4.7725 1.96875 -3.625 1.4375 C-2.42875 0.963125 -1.2325 0.48875 0 0 Z " fill="#110E0C" transform="translate(53,121)"/>
<path d="M0 0 C0.99 0.66 1.98 1.32 3 2 C2.05125 2.28875 1.1025 2.5775 0.125 2.875 C-3.05211578 3.76825109 -3.05211578 3.76825109 -5 6 C-5.99 5.67 -6.98 5.34 -8 5 C-5.31158141 2.74754119 -3.35358125 1.11786042 0 0 Z " fill="#251410" transform="translate(91,69)"/>
<path d="M0 0 C1.98 0.66 3.96 1.32 6 2 C6 2.33 6 2.66 6 3 C2.7 3.33 -0.6 3.66 -4 4 C-3.01 3.67 -2.02 3.34 -1 3 C-0.67 2.01 -0.34 1.02 0 0 Z " fill="#DD4D61" transform="translate(116,57)"/>
<path d="M0 0 C1.98 0 3.96 0 6 0 C6 0.99 6 1.98 6 3 C5.01 3.495 5.01 3.495 4 4 C1.875 3.0625 1.875 3.0625 0 2 C0 1.34 0 0.68 0 0 Z " fill="#DC4D60" transform="translate(134,43)"/>
<path d="M0 0 C1.485 0.99 1.485 0.99 3 2 C2.67 3.98 2.34 5.96 2 8 C1.01 7.67 0.02 7.34 -1 7 C-0.67 4.69 -0.34 2.38 0 0 Z " fill="#0A0A0A" transform="translate(73,102)"/>
</svg>
